<svg height="38" width="36" xmlns="http://www.w3.org/2000/svg" xmlns:xlink="http://www.w3.org/1999/xlink"><mask id="a" fill="#fff"><path d="m0 0h35.966v38h-35.966z" fill="#fff" fill-rule="evenodd"/></mask><g fill="#282829" fill-opacity=".95" fill-rule="evenodd"><path d="m11 28.31v-.62c0-.381-.224-.69-.5-.69s-.5.309-.5.69v.62c0 .381.224.69.5.69s.5-.309.5-.69z"/><path d="m11 30.31v-.62c0-.381-.224-.69-.5-.69s-.5.309-.5.69v.62c0 .381.224.69.5.69s.5-.309.5-.69zm0 3v-.62c0-.381-.224-.69-.5-.69s-.5.309-.5.69v.62c0 .381.224.69.5.69s.5-.309.5-.69zm0 2v-.62c0-.381-.224-.69-.5-.69s-.5.309-.5.69v.62c0 .381.224.69.5.69s.5-.309.5-.69zm2-24.824v1.028c0 .269.224.486.5.486s.5-.217.5-.486v-1.028a.493.493 0 0 0 -.5-.486c-.276 0-.5.217-.5.486zm1 0v1.028c0 .269.224.486.5.486s.5-.217.5-.486v-1.028a.493.493 0 0 0 -.5-.486c-.276 0-.5.217-.5.486zm3 0v1.028c0 .269.224.486.5.486s.5-.217.5-.486v-1.028a.493.493 0 0 0 -.5-.486c-.276 0-.5.217-.5.486zm1 0v1.028c0 .269.224.486.5.486s.5-.217.5-.486v-1.028a.493.493 0 0 0 -.5-.486c-.276 0-.5.217-.5.486zm13.5 7.405a1.392 1.392 0 0 1 -1.391-1.39c0-.768.624-1.392 1.391-1.392s1.391.624 1.391 1.391-.624 1.391-1.391 1.391m0-3.891a2.503 2.503 0 0 0 -2.5 2.5c0 1.378 1.121 2.5 2.5 2.5s2.5-1.122 2.5-2.5-1.121-2.5-2.5-2.5"/><path d="m25.61 17.574c0-1.082-.866-1.962-1.93-1.962h-2.288a.552.552 0 0 0 -.548.557c0 .307.245.556.548.556h2.288c.46 0 .834.38.834.849v8.74h-9.843a1.29 1.29 0 0 0 -1.18-.785h-2.352v-.535h.3c.302 0 .548-.249.548-.556a.552.552 0 0 0 -.548-.557h-.3v-.534h.55a1.46 1.46 0 0 0 1.445-1.47v-.533h.443c1.178 0 2.136-.974 2.136-2.172v-1.598c0-.468.375-.849.835-.849h2.288c.303 0 .548-.249.548-.556a.552.552 0 0 0 -.548-.557h-2.288c-1.064 0-1.93.88-1.93 1.962v1.598c0 .584-.467 1.058-1.041 1.058h-5.971a1.051 1.051 0 0 1 -1.042-1.058v-.617h3.135c.794 0 1.44-.656 1.44-1.463v-5.856c0-.807-.646-1.463-1.44-1.463h-2.507c.803-1.402 2.298-2.347 4.006-2.347h17.832c2.538 0 4.606 2.084 4.634 4.656a4.541 4.541 0 0 0 -2.31-.628c-2.543 0-4.611 2.102-4.611 4.687 0 2.584 2.068 4.687 4.611 4.687.807 0 1.606-.213 2.31-.63v6.117h-8.054zm8.985 17.308c.149 0 .275.128.275.28v1.445c0 .151-.126.28-.275.28h-19.83c.003-.014.004-.029.005-.043l.004-.035c.004-.04.006-.08.006-.12v-1.807zm-29.942 1.807v-9.849c0-.11.088-.198.195-.198h8.643c.107 0 .194.089.194.198v9.849a.196.196 0 0 1 -.194.198h-8.643a.196.196 0 0 1 -.195-.198zm-3.282.198a.281.281 0 0 1 -.276-.28v-1.447c0-.151.127-.28.276-.28h2.187v1.808c0 .04.002.08.006.12l.004.035c.002.014.002.029.005.043h-2.203zm1.037-8.843c0-.34.272-.616.607-.616h.543v6.34h-1.15zm6.735-6.167v-.533h2.896v.533c0 .193-.16.356-.35.356h-2.197a.358.358 0 0 1 -.35-.356zm-2.412-10.99h2.968c.19 0 .344.156.344.349v5.856c0 .193-.154.35-.344.35h-3.135v-5.306c0-.403.05-.818.167-1.25zm4.408-5.49h14.773v.698c0 .074.008.147.019.217h-14.733l-.06.002v-.916zm15.868-2.887c0-.117.1-.217.22-.217h2.073c.118 0 .219.1.219.217v3.586c0 .118-.1.217-.22.217h-2.073a.221.221 0 0 1 -.219-.217zm4.347 17.205c-1.939 0-3.516-1.603-3.516-3.573s1.577-3.574 3.516-3.574c1.942 0 3.516 1.606 3.516 3.574 0 1.978-1.585 3.573-3.516 3.573zm2.858 10.251c.302 0 .547-.25.547-.557v-10.11a4.71 4.71 0 0 0 1.207-3.157 4.71 4.71 0 0 0 -1.207-3.157v-.848c0-2.679-1.788-4.939-4.215-5.616.045-.133.07-.276.07-.425v-3.586c0-.733-.59-1.33-1.314-1.33h-.49v-.624a.552.552 0 0 0 -.546-.556.552.552 0 0 0 -.548.556v.623h-.489c-.724 0-1.314.597-1.314 1.33v1.775h-14.774v-.248a.552.552 0 0 0 -.548-.557.552.552 0 0 0 -.548.557v.248h-.02a.552.552 0 0 0 -.547.557c0 .308.245.557.547.557h.02v1.032c-2.61.546-4.575 2.9-4.575 5.705v7.036c0 1.198.959 2.172 2.137 2.172h.443v.533c0 .81.648 1.47 1.445 1.47h.55v.534h-.3a.552.552 0 0 0 -.548.557c0 .307.245.557.548.557h.3v.534h-5.195a1.29 1.29 0 0 0 -1.181.786h-.652c-.939 0-1.702.776-1.702 1.73v5.726a1.384 1.384 0 0 0 -1.313 1.391v1.446c0 .768.615 1.393 1.37 1.393h33.225c.756 0 1.37-.625 1.37-1.393v-1.445c0-.712-.527-1.3-1.206-1.382v-1.774a.552.552 0 0 0 -.547-.556.552.552 0 0 0 -.548.556v1.763h-18.884v-6.34h18.884v1.98c0 .307.245.556.548.556z" mask="url(#a)" stroke="#282829" stroke-opacity=".95" stroke-width=".5"/></g></svg>