<svg height="31" width="32" xmlns="http://www.w3.org/2000/svg"><g fill="none" fill-rule="evenodd" stroke="#282829" stroke-opacity=".95" stroke-width="2"><path d="m3 29.751v-15a1 1 0 0 1 1-1h24c.551 0 1 .447 1 1v15"/><path d="m1 29.75h29.998m-28-12.499a3.5 3.5 0 0 0 3.5 3.5c1.934 0 3.5-1.066 3.5-3m.002 0c0 1.934 1.566 3 3.5 3s3.5-1.066 3.5-3m0 0c0 1.934 1.566 3 3.5 3s3.5-1.066 3.5-3m0 0c0 1.934 1.566 3 3.5 3 .537 0 1.045-.122 1.5-.338m-13.002-11.662v4.999m-8-4.999v4.999m16.002-4.999v4.999m-14.502-9.499c0-2.035-1.5-2.999-1.5-2.999s-1.5 1.34-1.5 3a1.5 1.5 0 0 0 1.5 1.5 1.5 1.5 0 0 0 1.43-1.067c.041-.12.07-.257.07-.434zm8 0c0-2.035-1.5-2.999-1.5-2.999s-1.5 1.34-1.5 3a1.498 1.498 0 0 0 2.93.434c.041-.122.07-.258.07-.435zm8.002 0c0-2.035-1.5-2.999-1.5-2.999s-1.5 1.34-1.5 3a1.5 1.5 0 0 0 1.5 1.5 1.5 1.5 0 0 0 1.43-1.067c.041-.12.07-.257.07-.434z" stroke-linecap="round"/></g></svg>