<svg height="33" width="44" xmlns="http://www.w3.org/2000/svg"><g style="stroke:#202020;stroke-width:2;fill:none;fill-rule:evenodd;stroke-linecap:round;stroke-linejoin:round"><path d="m21.563 8.605a2 2 0 1 1 2.828 2.829 2 2 0 0 1 -2.828-2.83zm-6.971-3.022a2 2 0 1 1 2.828 2.83 2 2 0 0 1 -2.828-2.83zm-6.175 2.867a1.5 1.5 0 1 1 2.121 2.124 1.5 1.5 0 0 1 -2.121-2.124zm-2.722 6.308a2.5 2.5 0 1 1 3.536 3.534 2.5 2.5 0 0 1 -3.536-3.534z"/><path d="m9.442 23.011c5.05 0 8.55-1.95 8.05 1.7-.3 2.15-4.5.2-4.5 3.75 0 1.65 1.5 2.45 3.55 2.55a14.904 14.904 0 0 0 7.1-2.1l.35-.25.65-.4c6.771-4.773 8.391-14.131 3.618-20.902-4.773-6.771-14.13-8.391-20.902-3.618a15 15 0 0 0 -6.216 14.32c.6 3.1 3.3 4.95 8.3 4.95z"/><g fill="#f5f5f5"><path d="m42.434 2.198a.679.679 0 0 0 -.867-.076h-.037c-7.994 5.958-11.764 9.464-14.517 12.218l3.243 3.28c2.752-2.752 6.259-6.523 12.216-14.516h.038a.679.679 0 0 0 -.076-.905z"/><path d="m26.033 15.319a2.32 2.32 0 0 0 3.28 3.28l.98-.98-3.242-3.28z"/><path d="m26.146 21.917a2.266 2.266 0 0 0 -3.205-3.205c-1.621 1.584-1.056 4.864-2.941 5.43 1.772-.113 4.336-.415 6.146-2.225z"/></g></g></svg>